<?xml version="1.0" encoding="UTF-8"?>
<svg xmlns="http://www.w3.org/2000/svg" viewBox="0 0 1024 1024">
  <path fill="#4285F4" d="M1019 534c0-37-3-73-9-108H524v204h281c-12 64-49 119-105 155v129h170c100-92 157-229 149-380z"/>
  <path fill="#34A853" d="M524 1024c142 0 262-47 350-128l-170-128c-48 32-108 51-180 51-138 0-254-93-296-218H48v137c88 174 270 286 476 286z"/>
  <path fill="#FBBC05" d="M228 610c-10-32-17-66-17-102s6-70 17-102V269H48a498 498 0 0 0 0 486l180-135z"/>
  <path fill="#EA4335" d="M524 200c77 0 145 27 199 80l149-149C801 47 675 0 524 0 318 0 136 112 48 269l180 135c42-125 158-204 296-204z"/>
</svg>
